PathFileType	4	(X/Y/Z)	s01c0202.trc
DataRate	CameraRate	NumFrames	NumMarkers	Units	OrigDataRate	OrigDataStartFrame	OrigNumFrames
200	200	7	48	mm	200	500	2000
Frame#	Time	racr			lacr			c7			jug			rlel			rdr			llel			ldr			s2			lic			ric			lasi			rasi			rpsi			lpsi			rgt			lgt			rth1			rth2			rth3			rth4			rlfc			rsh1			rsh2			rsh3			rsh4			rlmal			rmmal			rcal			rtoe			rmt5			lth1			lth2			lth4			lth3			llfc			lsh1			lsh2			lsh3			lsh4			llmal			lmmal			lcal			ltoe			lmt5			SBIKE			LBIKE			RBIKE			
		X1	Y1	Z1	X2	Y2	Z2	X3	Y3	Z3	X4	Y4	Z4	X5	Y5	Z5	X6	Y6	Z6	X7	Y7	Z7	X8	Y8	Z8	X9	Y9	Z9	X10	Y10	Z10	X11	Y11	Z11	X12	Y12	Z12	X13	Y13	Z13	X14	Y14	Z14	X15	Y15	Z15	X16	Y16	Z16	X17	Y17	Z17	X18	Y18	Z18	X19	Y19	Z19	X20	Y20	Z20	X21	Y21	Z21	X22	Y22	Z22	X23	Y23	Z23	X24	Y24	Z24	X25	Y25	Z25	X26	Y26	Z26	X27	Y27	Z27	X28	Y28	Z28	X29	Y29	Z29	X30	Y30	Z30	X31	Y31	Z31	X32	Y32	Z32	X33	Y33	Z33	X34	Y34	Z34	X35	Y35	Z35	X36	Y36	Z36	X37	Y37	Z37	X38	Y38	Z38	X39	Y39	Z39	X40	Y40	Z40	X41	Y41	Z41	X42	Y42	Z42	X43	Y43	Z43	X44	Y44	Z44	X45	Y45	Z45	X46	Y46	Z46	X47	Y47	Z47	X48	Y48	Z48	
500	2.5000	471.980250	1273.452493	-66.192143	522.115072	1254.704103	-402.433083	462.162772	1359.032991	-243.068379	459.155124	1189.211468	-235.309477	466.315611	1006.587411	38.521036	677.197722	896.654100	-59.023261	491.983754	1020.890728	-573.315473	666.556865	883.830612	-466.908123	-63.772576	1163.292501	-281.059005	115.709387	1160.541236	-447.357387	81.292157	1164.750034	-112.156077	111.052022	1112.985558	-422.342690	113.760480	1122.045915	-145.508435	-35.880672	1201.913037	-230.470654	-34.833256	1201.928376	-337.301500	38.685801	1054.136369	-91.348343	58.231798	1041.256335	-473.630309	123.612958	942.967305	-73.480281	178.695202	881.700455	-81.572615	233.982045	811.210546	-96.371740	220.494819	916.481248	-97.399279	286.539357	710.666184	-117.134377	270.756497	594.861406	-76.009682	270.011303	509.812536	-78.094558	260.563758	421.599551	-84.735407	315.049106	508.600699	-119.017505	235.628298	298.177285	-100.708944	289.954414	322.991497	-183.393509	192.224996	269.040421	-150.435715	461.158813	232.182111	-145.064967	358.305508	208.399953	-71.342626	150.882362	964.880325	-470.731340	238.291638	943.023963	-470.532334	252.286152	994.126298	-460.857052	317.371091	912.983368	-454.087180	394.521928	826.928633	-427.680535	298.350641	773.467379	-456.799539	234.421223	716.481138	-447.951337	169.013981	662.655929	-431.526493	272.347900	680.169553	-413.205247	72.896777	585.625959	-414.235521	103.057983	574.344280	-332.458362	11.316677	584.436282	-368.119296	216.978942	395.549027	-381.179620	122.151475	446.703340	-444.163724	-229.462816	890.586435	-256.319232	-22.743961	80.256920	-456.546697	-22.780463	80.235167	-56.367501	
501	2.5050	472.483849	1275.196760	-67.213798	520.883234	1257.123095	-404.433048	461.613065	1361.848503	-243.911293	459.181824	1192.411304	-236.907469	466.239338	1007.716744	37.590584	677.529621	896.633668	-59.002045	491.102211	1021.241602	-572.288633	666.433863	884.113589	-466.329618	-63.700925	1162.639563	-280.703380	115.615089	1161.860163	-447.335693	81.054018	1164.924697	-111.935450	111.581450	1113.987094	-421.771661	114.066479	1122.343565	-145.123856	-36.004922	1201.265197	-229.987179	-35.096564	1201.570796	-336.754975	38.576495	1053.275118	-91.248322	59.589229	1042.239457	-473.437254	122.633609	941.805133	-72.825201	176.935355	879.789938	-80.739888	231.413240	808.648626	-95.267678	219.036076	914.102248	-95.922042	283.152212	707.379985	-115.949011	267.480141	591.632754	-74.956308	266.699010	506.538275	-77.219779	257.569377	418.407917	-84.058819	311.999312	505.530892	-117.993603	233.026278	295.222997	-100.647101	287.778537	319.727559	-183.097744	189.468705	267.141005	-150.291809	457.724026	225.796495	-145.116970	354.491730	203.683648	-71.391364	152.747491	966.923502	-470.623727	240.464721	946.240181	-470.456862	253.835614	997.431250	-460.822077	319.992528	917.291345	-453.969920	398.303591	832.579628	-427.333928	302.115941	779.092943	-456.430991	238.356186	721.875594	-447.677603	172.995871	667.889090	-431.381618	276.353525	685.516226	-413.074934	77.284905	590.588006	-414.240997	107.561925	579.083486	-332.725968	15.770186	589.397423	-368.084345	222.230102	401.183452	-381.612660	126.486691	451.740048	-444.026701	-229.517027	890.583222	-256.225141	-22.778901	80.313327	-456.500468	-22.786502	80.247299	-56.364148	
502	2.5100	473.071270	1277.182184	-68.503364	519.635929	1259.672249	-406.481592	461.003115	1364.698418	-245.018546	458.932184	1195.684992	-238.584153	466.664146	1009.182277	36.956956	677.906265	896.698134	-59.197177	490.319971	1021.618271	-571.428001	666.332662	884.389725	-465.908841	-63.609488	1162.022005	-280.258352	115.215245	1163.219766	-447.206431	80.841861	1165.197387	-111.779858	112.064842	1115.197144	-421.185457	114.227926	1122.550923	-144.236960	-36.105146	1200.678730	-229.401924	-35.397971	1201.278804	-336.112873	38.585302	1052.704093	-91.049676	60.912506	1043.327703	-473.202469	121.626494	940.727018	-72.090310	175.268793	878.127134	-79.936504	228.919677	806.288282	-94.166179	217.839057	911.909147	-95.009728	279.774441	704.379618	-114.789337	263.903265	588.622619	-74.013227	263.410377	503.566089	-76.432208	254.445336	415.318512	-83.425238	308.871711	502.664112	-117.003062	230.338851	292.477002	-100.708590	285.410450	316.584564	-182.785461	186.615934	265.640672	-150.134288	454.105964	219.085434	-145.094113	350.577122	199.183399	-71.303457	154.506430	969.084584	-470.452346	242.442217	949.458571	-470.344825	255.130484	1000.989196	-460.865446	322.413768	921.637304	-453.870327	401.802175	838.609790	-426.952706	305.792921	784.691704	-456.043761	242.213310	727.174435	-447.368327	177.038107	673.014804	-431.180496	280.368959	690.950490	-413.055369	81.695788	595.356416	-414.243347	112.097883	583.627920	-333.001115	20.170098	594.133523	-367.899173	226.886611	406.313681	-381.660635	131.190602	456.598726	-444.065423	-229.500426	890.596332	-256.167528	-22.772512	80.320635	-456.480867	-22.783894	80.231774	-56.350119	
503	2.5150	473.619393	1279.273241	-70.076763	518.412871	1262.270904	-408.562826	460.385941	1367.447783	-246.266160	458.786941	1198.694907	-240.337186	467.276856	1010.932079	36.234618	678.392413	896.928321	-59.410924	489.499220	1022.125853	-570.771278	666.249955	884.766266	-465.592746	-63.570723	1161.633389	-279.701939	114.384702	1164.516342	-446.845406	80.717143	1165.667405	-111.643701	112.466402	1116.375442	-420.522151	114.508463	1122.974135	-143.674155	-36.235820	1200.234408	-228.679713	-35.703209	1201.125227	-335.341046	38.533377	1052.227290	-90.774110	62.059724	1044.557040	-472.917771	120.603276	939.769635	-71.525285	173.496644	876.571405	-79.130961	226.204556	804.222594	-93.021031	216.677611	909.900446	-94.168125	276.401209	701.590904	-113.618427	260.392643	585.856529	-73.093424	260.094802	500.843256	-75.530569	251.309830	412.611036	-82.850571	305.734892	500.067073	-115.960468	227.552279	290.092459	-100.609275	282.851231	313.568844	-182.454882	183.864682	264.370979	-150.053400	450.360011	212.826544	-145.090265	346.252661	194.631955	-71.718554	156.168675	971.370117	-470.202147	244.342196	952.780428	-470.087290	256.384325	1004.371204	-460.499736	324.635866	925.988486	-453.668760	405.181958	844.266257	-426.490400	309.262314	790.255804	-455.721344	245.915364	732.563462	-447.074642	181.048950	678.130301	-431.132644	284.252709	696.298825	-412.995667	86.119313	599.918083	-414.254127	116.639203	587.984138	-333.254878	24.503293	598.585060	-367.932120	231.701966	411.212914	-381.634217	135.975265	461.372514	-444.034433	-229.526481	890.618479	-256.116064	-22.757144	80.332476	-456.525158	-22.783848	80.247231	-56.349249	
504	2.5200	474.259034	1281.518792	-71.851693	517.183521	1264.841281	-410.731206	459.754630	1370.124686	-247.626448	458.444917	1201.711247	-242.186809	468.120428	1012.988360	35.291752	678.958238	897.327259	-59.625799	488.797131	1022.642785	-570.303389	666.024923	885.109175	-465.296473	-63.517576	1161.342609	-279.008353	113.685102	1166.144366	-446.612477	80.676209	1166.332266	-111.610415	112.734799	1117.647584	-419.835643	114.738287	1123.587500	-143.114704	-36.351274	1199.926168	-227.907902	-36.017321	1201.115959	-334.461995	38.471586	1051.826651	-90.433789	63.081738	1046.033650	-472.585012	119.474179	938.907235	-70.919594	171.747340	875.175823	-78.280677	223.735238	802.262148	-91.933049	215.390046	908.062977	-93.133556	273.047034	699.080562	-112.487795	256.859671	583.445009	-72.171783	256.669965	498.508723	-74.790091	248.156177	410.130449	-82.263736	302.588883	497.822818	-115.003079	224.916352	288.003145	-100.617989	280.101930	310.686766	-182.104135	180.955760	263.563417	-149.821372	446.449990	206.682562	-145.122994	342.164058	190.589844	-71.744416	157.734923	973.786516	-469.872687	246.044468	956.321408	-469.639050	257.443248	1008.098811	-459.706118	326.428105	930.511546	-453.565095	408.220258	849.927675	-426.335374	312.579766	795.784376	-455.327394	249.498763	737.793702	-446.719188	184.875734	682.952788	-430.964778	288.097032	701.574128	-412.919840	90.543880	604.259240	-414.270478	121.155565	592.163204	-333.452645	28.843310	602.750453	-367.985784	237.393798	416.748114	-382.442001	140.633827	466.180573	-443.983630	-229.528489	890.667118	-256.077368	-22.755278	80.347865	-456.508706	-22.762815	80.254184	-56.322021	
505	2.5250	474.951665	1283.854232	-73.818261	515.963740	1267.597935	-412.847474	459.157382	1372.685271	-249.142513	458.031421	1204.420596	-244.178804	469.268786	1015.538407	34.099087	679.526460	897.789051	-59.946878	488.107823	1023.408740	-570.005941	665.855978	885.539021	-465.168024	-63.579910	1161.149997	-278.233574	113.061692	1167.862578	-446.499866	80.836305	1167.049161	-111.626037	112.929677	1119.030027	-419.102207	114.959641	1124.087262	-142.589949	-36.480775	1199.768411	-227.008189	-36.362475	1201.208734	-333.518423	38.422137	1051.499401	-90.038474	63.976016	1047.561027	-472.135879	118.431170	938.310333	-70.262008	169.969234	873.900588	-77.641533	221.309671	800.425885	-90.893483	214.255691	906.420550	-91.931302	269.769001	696.763634	-111.482356	253.095595	581.216338	-71.402166	253.344455	496.315425	-74.020161	244.976508	407.972744	-81.659851	299.372097	495.797272	-114.050057	222.073091	286.305132	-100.419727	277.163627	307.944633	-181.731426	178.161628	262.986177	-149.713280	442.355114	200.404403	-145.185989	337.907925	186.783425	-71.407720	159.194038	976.336952	-469.477390	247.700536	959.991794	-469.051872	258.360679	1011.943231	-458.690660	328.011564	935.181309	-453.333176	410.693236	855.857216	-426.442788	315.716287	801.232494	-454.993420	252.949365	742.888330	-446.454556	188.612306	687.538167	-430.677415	291.865921	706.733570	-412.773812	94.982216	608.359315	-414.305619	125.617316	596.176726	-333.560462	33.255979	606.595335	-368.073928	242.901761	420.830267	-381.652503	145.855787	470.510789	-443.962299	-229.555963	890.692463	-256.042952	-22.752439	80.377290	-456.502328	-22.777035	80.264805	-56.343162	
506	2.5300	475.753014	1286.170096	-75.973168	514.846927	1270.157915	-414.834660	458.598859	1375.058582	-250.739084	457.572021	1207.231631	-246.183769	470.913743	1018.495655	32.923355	680.022425	898.247213	-60.375903	487.541275	1024.261586	-569.776401	665.722712	885.987895	-465.106704	-63.693692	1161.147680	-277.407764	112.256218	1169.651400	-446.237461	81.141667	1167.969021	-111.619572	113.015756	1120.392766	-418.413437	115.120994	1124.756827	-141.972999	-36.657693	1199.723848	-226.026199	-36.756479	1201.420543	-332.507524	38.411278	1051.306089	-89.587834	64.671253	1049.318800	-471.681506	117.353660	937.630329	-69.647323	168.298494	872.760727	-76.871508	218.963133	798.851652	-89.912152	212.935733	904.912832	-90.872842	266.500344	694.812231	-110.471938	249.648708	579.265904	-70.615350	250.017867	494.347040	-73.292991	241.789647	406.077425	-81.089287	296.227457	493.956602	-113.103433	219.312207	284.789742	-100.394541	274.037372	305.348839	-181.334915	175.298268	262.829480	-149.495906	438.159147	194.358929	-145.246827	333.204311	182.743303	-71.757384	160.529618	979.014912	-469.033779	249.209669	963.891063	-468.451538	259.130528	1015.962921	-457.500872	329.522305	940.039234	-452.971247	414.287683	862.210545	-425.270316	318.750362	806.617743	-454.777787	256.368675	747.914668	-446.175949	192.349468	692.127579	-430.507599	295.461383	711.851231	-412.670583	99.425702	612.220104	-414.350459	130.000457	600.032334	-333.552069	37.689070	609.967700	-368.120976	247.820180	425.515316	-382.095775	151.572167	474.841908	-443.696572	-229.604081	890.696793	-256.004016	-22.742749	80.411062	-456.495289	-22.780565	80.270771	-56.334137	
